<svg
  width="213"
  height="80"
  viewBox="0 0 213 80"
  fill="none"
  xmlns="http://www.w3.org/2000/svg"
>
  <path
    fill-rule="evenodd"
    clip-rule="evenodd"
    d="M1.30311 11.2534C1.30311 17.4428 1.00984 25.911 0.651051 30.0714L0 37.6359H12.2632H24.5274L24.2533 19.0978L23.9791 0.559606L12.6411 0.279803L1.30311 0V11.2534ZM56.5761 1.44351C42.5543 6.35737 30.7093 19.9659 28.846 33.3024L28.1998 37.9278L31.1125 37.211C42.6481 34.3703 55.6933 25.1863 62.6703 14.9928C65.8425 10.3587 69.8351 2.30467 69.8351 0.539833C69.8351 -0.453817 60.0967 0.209605 56.5761 1.44351ZM0.967508 42.2503C0.597638 42.6123 0.295291 51.0656 0.295291 61.0355V79.1614H12.3891H24.4831V60.376V41.5909H13.0614C6.77861 41.5909 1.33638 41.8876 0.967508 42.2503ZM28.8853 46.207C29.7137 52.1355 33.6683 60.5866 38.0938 65.8844C45.8126 75.1254 59.4937 80.788 71.9859 79.9109C75.8316 79.6414 79.2923 79.1114 79.6777 78.7344C81.1258 77.3125 72.675 63.4543 66.8317 57.6683C57.8159 48.7401 42.0877 41.6599 31.1487 41.6057C28.2643 41.5909 28.2453 41.6294 28.8853 46.207Z"
    fill="#E9E3DB"
  />
  <path
    d="M108.047 53.5311H101.859L94.885 42.2705L91.2015 46.3607V53.5311H86.1924V19.2676H91.2015V40.3935L100.877 29.1329H106.966L98.3228 38.7091L108.047 53.5311Z"
    fill="#E9E3DB"
  />
  <path d="M120.281 38.5298H115.479V43.2357H120.281V38.5298Z" fill="#E9E3DB" />
  <path
    d="M146.904 46.2105C146.484 48.5939 145.466 50.4499 143.852 51.779C142.262 53.0851 140.309 53.7382 137.995 53.7382C135.398 53.7382 133.212 52.8677 131.434 51.1259C130.943 50.6446 130.546 50.1292 130.241 49.5791C129.938 49.0063 129.692 48.4906 129.505 48.0323C129.342 47.574 129.225 46.9094 129.154 46.0386C129.084 45.1679 129.037 44.4689 129.014 43.942C129.014 43.4149 129.014 42.5326 129.014 41.2953C129.014 40.0577 129.014 39.1754 129.014 38.6483C129.037 38.1214 129.084 37.4224 129.154 36.5516C129.225 35.6809 129.342 35.0163 129.505 34.558C129.692 34.0996 129.938 33.5954 130.241 33.0456C130.546 32.4726 130.943 31.9456 131.434 31.4644C133.212 29.7228 135.398 28.8521 137.995 28.8521C140.333 28.8521 142.298 29.5051 143.888 30.8113C145.478 32.1175 146.484 33.9737 146.904 36.3798H143.045C142.742 35.0966 142.157 34.0767 141.291 33.3204C140.426 32.5643 139.327 32.1863 137.995 32.1863C136.474 32.1863 135.246 32.6788 134.311 33.6643C133.703 34.3288 133.294 35.1537 133.083 36.1392C132.896 37.1244 132.802 38.8433 132.802 41.2953C132.802 43.7473 132.896 45.4659 133.083 46.4511C133.294 47.4366 133.703 48.2615 134.311 48.926C135.246 49.9115 136.474 50.404 137.995 50.404C139.327 50.404 140.426 50.026 141.291 49.2699C142.18 48.5136 142.776 47.4939 143.081 46.2105H146.904ZM167.774 53.532H151.953V29.0583H155.741V50.1978H167.774V53.532ZM189.224 45.2826C189.224 47.7802 188.371 49.8197 186.664 51.401C184.957 52.9592 182.817 53.7382 180.244 53.7382C177.672 53.7382 175.532 52.9592 173.826 51.401C172.142 49.8197 171.299 47.7802 171.299 45.2826V29.0583H175.088V45.1105C175.088 46.7376 175.555 48.0323 176.491 48.9948C177.427 49.9345 178.678 50.404 180.244 50.404C181.811 50.404 183.062 49.9345 183.998 48.9948C184.957 48.0323 185.436 46.7376 185.436 45.1105V29.0583H189.224V45.2826ZM213.002 46.6232C213.002 48.823 212.312 50.5302 210.932 51.7448C209.552 52.9363 207.728 53.532 205.46 53.532H195.357V29.0583H205.074C207.389 29.0583 209.225 29.6655 210.581 30.8801C211.937 32.0716 212.616 33.6987 212.616 35.7609C212.616 36.9985 212.277 38.087 211.598 39.0266C210.944 39.9432 210.161 40.5848 209.248 40.9514C210.324 41.3638 211.213 42.0513 211.914 43.0139C212.639 43.9762 213.002 45.1793 213.002 46.6232ZM209.213 46.4511C209.213 45.3512 208.851 44.4574 208.125 43.7699C207.401 43.0824 206.395 42.7388 205.109 42.7388H199.145V50.1978H205.109C206.395 50.1978 207.401 49.8542 208.125 49.1667C208.851 48.4792 209.213 47.574 209.213 46.4511ZM207.705 38.5109C208.453 37.8922 208.827 37.0214 208.827 35.8986C208.827 34.7757 208.453 33.9164 207.705 33.3204C206.979 32.7017 205.997 32.3925 204.758 32.3925H199.145V39.4046H204.758C205.997 39.4046 206.979 39.1066 207.705 38.5109Z"
    fill="#E9E3DB"
  />
  <path
    d="M114.112 76.2954H113.089V69.591H114.112V76.2954ZM122.826 76.2954H121.861L118.897 71.4778V76.2954H117.873V69.591H118.839L121.803 74.4085V69.591H122.826V76.2954ZM130.943 69.591L128.82 76.2954H128.038L125.914 69.591H127.024L128.482 74.4468H128.511L129.911 69.591H130.943ZM138.348 76.2954H134.033V69.591H138.348V70.5104H135.056V72.4834H137.875V73.4029H135.056V75.3759H138.348V76.2954ZM146.622 74.4564C146.635 74.98 146.445 75.4333 146.052 75.8164C145.653 76.1995 145.023 76.391 144.16 76.391C143.233 76.391 142.406 76.0942 141.679 75.5003L142.432 74.7534C143.011 75.2066 143.607 75.4333 144.218 75.4333C144.604 75.4333 144.916 75.3599 145.155 75.213C145.451 75.0343 145.599 74.7662 145.599 74.4085C145.599 74.1977 145.525 74.0157 145.377 73.8625C145.229 73.7093 145.048 73.6071 144.836 73.5561L143.822 73.3644C142.632 73.1347 142.036 72.5122 142.036 71.4969C142.036 70.8775 142.246 70.3827 142.664 70.0123C143.069 69.6674 143.588 69.4951 144.218 69.4951C145.081 69.5015 145.821 69.7602 146.439 70.2711L145.744 70.9606C145.287 70.6221 144.788 70.4528 144.247 70.4528C143.913 70.4528 143.639 70.5262 143.427 70.6733C143.182 70.8456 143.06 71.0914 143.06 71.4108C143.079 71.9407 143.443 72.2632 144.15 72.3779L144.855 72.5122C146.033 72.7101 146.622 73.358 146.622 74.4564ZM154.324 70.5104H152.461V76.2954H151.438V70.5104H149.613V69.591H154.324V70.5104ZM163.315 76.2954H162.292V72.0427L160.853 75.3374H159.975L158.537 72.0427V76.2954H157.513V69.591H158.44L160.4 73.9584H160.429L162.388 69.591H163.315V76.2954ZM171.393 76.2954H167.078V69.591H171.393V70.5104H168.101V72.4834H170.92V73.4029H168.101V75.3759H171.393V76.2954ZM179.87 76.2954H178.904L175.941 71.4778V76.2954H174.917V69.591H175.882L178.846 74.4085V69.591H179.87V76.2954ZM187.765 70.5104H185.902V76.2954H184.878V70.5104H183.054V69.591H187.765V70.5104Z"
    fill="#E9E3DB"
  />
</svg>
